Coordinates
nRows=200
nColumns=2
inDegrees=yes
endheader
time	ankle_angle_r	
4.3246	 -5.302283	
4.35786	 -5.325317	
4.39113	 -5.287217	
4.4244	 -5.302573	
4.45766	 -5.317928	
4.49093	 -5.264956	
4.52419	 -5.301996	
4.55746	 -5.318218	
4.59073	 -5.294800	
4.62399	 -5.303153	
4.65726	 -5.325317	
4.69052	 -5.270995	
4.72379	 -5.312086	
4.75706	 -5.294800	
4.79032	 -5.270705	
4.82359	 -5.249023	
4.85685	 -5.301029	
4.89012	 -5.227633	
4.92339	 -5.251871	
4.95665	 -5.233765	
4.98992	 -5.216238	
5.02319	 -5.249023	
5.05645	 -5.254672	
5.08972	 -5.193541	
5.12298	 -5.278433	
5.15625	 -5.218506	
5.18952	 -5.213244	
5.22278	 -5.223434	
5.25605	 -5.198178	
5.28931	 -5.177701	
5.32258	 -5.279541	
5.35585	 -5.314837	
5.38911	 -5.264282	
5.42238	 -5.314644	
5.45565	 -5.320829	
5.48891	 -5.290408	
5.52218	 -5.301468	
5.55544	 -5.321119	
5.58871	 -5.290698	
5.62198	 -5.321312	
5.65524	 -5.310059	
5.68851	 -5.260470	
5.72177	 -5.286971	
5.75504	 -5.314462	
5.78831	 -5.264282	
5.82157	 -5.286391	
5.85484	 -5.318661	
5.8881	 -5.279541	
5.92137	 -5.297935	
5.95464	 -5.291761	
5.9879	 -5.261341	
6.02117	 -5.310059	
6.05444	 -5.292052	
6.0877	 -5.264282	
6.12097	 -5.292245	
6.15423	 -5.302684	
6.1875	 -5.277180	
6.22077	 -5.305529	
6.25403	 -5.277373	
6.2873	 -5.275398	
6.32056	 -5.310059	
6.35383	 -5.302547	
6.3871	 -5.264282	
6.42036	 -5.296484	
6.45363	 -5.291624	
6.4869	 -5.278050	
6.52016	 -5.308664	
6.55343	 -5.293502	
6.58669	 -5.263081	
6.61996	 -5.279541	
6.65323	 -5.251039	
6.68649	 -5.218506	
6.71976	 -5.247395	
6.75302	 -5.156753	
6.78629	 -5.232522	
6.81956	 -5.217981	
6.85282	 -5.232909	
6.88609	 -5.203578	
6.91935	 -5.249492	
6.95262	 -5.218506	
6.98589	 -5.310018	
7.01915	 -5.294856	
7.05242	 -5.249481	
7.08569	 -5.279043	
7.11895	 -5.279887	
7.15222	 -5.264725	
7.18548	 -5.234843	
7.21875	 -5.294800	
7.25202	 -5.234497	
7.28528	 -5.264282	
7.31855	 -5.280467	
7.35181	 -5.279541	
7.38508	 -5.252381	
7.41835	 -5.281973	
7.45161	 -5.249023	
7.48488	 -5.253251	
7.51815	 -5.308553	
7.55141	 -5.235367	
7.58468	 -5.264282	
7.61794	 -5.281337	
7.65121	 -5.262390	
7.68448	 -5.247034	
7.71774	 -5.268455	
7.75101	 -5.249023	
7.78427	 -5.238324	
7.81754	 -5.294800	
7.85081	 -5.223452	
7.88407	 -5.266852	
7.91734	 -5.269615	
7.9506	 -5.264282	
7.98387	 -5.218506	
8.01714	 -5.206203	
8.0504	 -5.233765	
8.08367	 -5.218506	
8.11694	 -5.230518	
8.1502	 -5.184645	
8.18347	 -5.203247	
8.21673	 -5.145748	
8.25	 -5.138579	
8.28327	 -5.157471	
8.31653	 -5.203247	
8.3498	 -5.180142	
8.38306	 -5.168710	
8.41633	 -5.157471	
8.4496	 -5.218506	
8.48286	 -5.105055	
8.51613	 -5.249023	
8.5494	 -5.151218	
8.58266	 -5.111694	
8.61593	 -5.172729	
8.64919	 -5.075504	
8.68246	 -5.147102	
8.71573	 -5.177716	
8.74899	 -5.121861	
8.78226	 -5.106796	
8.81552	 -5.152194	
8.84879	 -5.167356	
8.88206	 -5.096436	
8.91532	 -5.203247	
8.94859	 -5.163134	
8.98185	 -5.201530	
9.01512	 -5.249023	
9.04839	 -5.193942	
9.08165	 -5.172729	
9.11492	 -5.233765	
9.14819	 -5.102679	
9.18145	 -5.163811	
9.21472	 -5.212069	
9.24798	 -5.172729	
9.28125	 -5.164101	
9.31452	 -5.194715	
9.34778	 -5.186377	
9.38105	 -5.089515	
9.41431	 -5.157471	
9.44758	 -5.149326	
9.48085	 -5.142212	
9.51411	 -5.226458	
9.54738	 -5.119098	
9.58065	 -5.226264	
9.61391	 -5.233765	
9.64718	 -5.134518	
9.68044	 -5.112017	
9.71371	 -5.164842	
9.74698	 -5.150196	
9.78024	 -5.150292	
9.81351	 -5.217410	
9.84677	 -5.196262	
9.88004	 -5.250506	
9.91331	 -5.264282	
9.94657	 -5.209942	
9.97984	 -5.203247	
10.0131	 -5.273040	
10.0464	 -5.249023	
10.0796	 -5.218506	
10.1129	 -5.273330	
10.1462	 -5.245994	
10.1794	 -5.236560	
10.2127	 -5.267698	
10.246	 -5.249023	
10.2792	 -5.228037	
10.3125	 -5.258651	
10.3458	 -5.244834	
10.379	 -5.233765	
10.4123	 -5.284882	
10.4456	 -5.249023	
10.4788	 -5.244060	
10.5121	 -5.284592	
10.5454	 -5.258932	
10.5786	 -5.249023	
10.6119	 -5.270019	
10.6452	 -5.259618	
10.6784	 -5.218506	
10.7117	 -5.273224	
10.745	 -5.229390	
10.7782	 -5.194692	
10.8115	 -5.242126	
10.8448	 -5.222590	
10.878	 -5.176717	
10.9113	 -5.218506	
10.9446	 -5.096436	
